<?xml version="1.0" encoding="UTF-8"?>
<!DOCTYPE svg PUBLIC "-//W3C//DTD SVG 1.1//EN" "http://www.w3.org/Graphics/SVG/1.1/DTD/svg11.dtd">
<!-- Creator: CorelDRAW -->
<svg xmlns="http://www.w3.org/2000/svg" xml:space="preserve" width="58.1633mm" height="60.2738mm" version="1.1" style="shape-rendering:geometricPrecision; text-rendering:geometricPrecision; image-rendering:optimizeQuality; fill-rule:evenodd; clip-rule:evenodd"
viewBox="0 0 80.83 83.76"
 xmlns:xlink="http://www.w3.org/1999/xlink"
 xmlns:xodm="http://www.corel.com/coreldraw/odm/2003">
 <defs>
  <style type="text/css">
   <![CDATA[
    .fil0 {fill:#FEFEFE}
   ]]>
  </style>
 </defs>
 <g id="Capa_x0020_1">
  <metadata id="CorelCorpID_0Corel-Layer"/>
  <path class="fil0" d="M50.8 55.96c0.73,-2.08 1.62,-3.78 2.82,-5.63 0.22,-0.33 0.44,-0.67 0.66,-0.99 2.54,-3.82 3.69,-6.04 3.42,-10.82 -0.43,-7.82 -4.83,-13.95 -12.52,-15.95 -8.71,-2.27 -18.27,1.88 -21.23,10.7 -0.5,1.48 -0.77,2.95 -0.9,4.5 -0.44,5.46 1.18,8.03 3.17,11.21 0.28,0.44 0.56,0.89 0.85,1.37 2.66,4.39 3.1,6.47 4.3,11.36 0.06,0.25 0.11,0.41 0.2,0.65 0.68,0.1 1.98,0.04 2.73,0.04 4.64,0.01 9.3,-0.01 13.94,0.03 0.33,0 0.61,-0.01 0.94,-0.04 0.29,-1.06 0.47,-2.23 0.73,-3.32 0.25,-1.05 0.54,-2.08 0.89,-3.1zm-44.71 5.32c-0.61,-0.46 -0.41,-1.21 -0.02,-1.75 0.35,-0.49 1.1,-0.8 1.62,-1.1 2.39,-1.38 4.86,-3.02 7.33,-4.22 0.64,-0.31 1.92,-0.95 2.49,-0.22 0.46,0.59 0.01,1.66 -0.61,2.04 -0.8,0.5 -1.76,1 -2.59,1.48 -2.07,1.18 -4.13,2.37 -6.18,3.58 -0.65,0.38 -1.33,0.53 -2.04,0.19zm-5.41 -21.37c0.61,-0.21 2.02,-0.12 2.75,-0.13 2.8,-0.03 5.64,-0.1 8.44,-0.1 0.67,-0 1.44,0.05 1.83,0.7 0.44,0.73 -0.29,1.44 -1,1.63 -1.13,0.3 -5.53,0.28 -6.9,0.26 -1.27,-0.02 -2.58,-0.04 -3.85,-0.09 -0.75,-0.03 -1.79,-0.28 -1.94,-1.16 -0.09,-0.52 0.23,-0.89 0.67,-1.11zm15.98 -12.25c-0.75,0.65 -2.23,-0.11 -2.97,-0.48 -1.6,-0.8 -2.97,-1.84 -4.56,-2.65 -0.94,-0.47 -5.29,-2.48 -3.69,-3.96 0.83,-0.77 2.82,0.39 3.61,0.83 1.28,0.71 2.4,1.52 3.71,2.19 1.02,0.52 5.26,2.51 3.91,4.07zm57.23 32.42c-0.86,-0.32 -2.34,-1.3 -3.23,-1.81 -1.88,-1.08 -3.73,-2.12 -5.63,-3.17 -0.79,-0.44 -1.75,-1.14 -1.23,-2.17 0.7,-1.38 3.42,0.34 4.25,0.83 1.15,0.68 2.14,1.34 3.35,1.96 0.98,0.51 4.5,2.19 4.23,3.54 -0.14,0.74 -1.06,1.02 -1.74,0.82zm-10.46 -33.48c-0.93,-0.42 -0.53,-1.47 0.01,-2.06 0.02,-0.03 6.07,-3.63 6.6,-3.93 0.89,-0.51 2.84,-1.67 3.8,-1.74 1.72,-0.13 1.56,1.69 0.18,2.56 -1.03,0.65 -2.27,1.17 -3.35,1.82 -1.13,0.68 -4.94,3.14 -5.97,3.39 -0.43,0.11 -0.85,0.12 -1.27,-0.03zm16.91 13.55c-0.81,0.78 -2.47,0.7 -3.52,0.67 -1.15,-0.04 -2.11,-0.13 -3.28,-0.1 -1.36,0.04 -4.24,0.24 -5.43,-0.12 -1.85,-0.56 -1.81,-1.98 0.23,-2.32 1.08,-0.18 2.68,-0.09 3.82,-0.09 2.01,-0 4.1,-0.05 6.1,-0 1.2,0.03 3.57,0.24 2.08,1.97zm-60.63 -34.48c1.18,-0.41 2.2,1.31 2.69,2.14 0.8,1.35 1.34,2.68 2.22,4.03 0.67,1.03 3.41,4.87 1.49,5.71 -0.82,0.36 -1.51,-0.26 -1.87,-0.95 -0.46,-0.86 -0.84,-1.7 -1.32,-2.58 -0.92,-1.64 -1.83,-3.12 -2.83,-4.71 -0.58,-0.92 -1.81,-2.92 -0.37,-3.65zm40.69 0.8c-0.2,0.86 -1.25,2.19 -1.75,3.02 -1.14,1.88 -2.1,3.79 -3.13,5.72 -0.48,0.89 -1.06,1.73 -2.2,1.68 -1.61,-0.07 -0.58,-2.06 -0.22,-2.86 0.88,-1.91 2.16,-3.61 3.12,-5.51 0.47,-0.93 1.89,-3.94 3.15,-3.75 0.76,0.12 1.14,0.96 1.04,1.69zm-19.8 6.43c-0.44,1.09 -1.95,0.73 -2.2,-0.3 -0.35,-1.59 -0.11,-4.78 -0.09,-6.54 0.01,-1.22 -0.15,-2.49 -0.12,-3.67 0.03,-0.98 0.28,-2.08 1.37,-2.35 1.51,-0.38 1.28,2.01 1.31,2.92 0.07,2.13 0.14,4.07 0.08,6.21 -0.03,0.87 -0.08,2.97 -0.35,3.72zm-1.51 13.62c-0.73,1.18 -2.43,1.11 -3.61,1.53 -3.09,1.1 -5.35,3.9 -5.96,7.1 -0.15,0.78 -0.49,3.49 -1.59,3.42 -0.73,-0.05 -1.51,-0.79 -1.72,-1.5 -0.54,-2.14 1.63,-5.66 2.89,-7.33 1.93,-2.54 5.47,-5.79 8.95,-5.09 1.08,0.21 1.54,0.83 1.03,1.88zm-10.47 41.6c0.72,-1.08 2.53,-1 3.7,-1.01 2.78,-0.03 5.52,0.14 8.32,0.09 2.11,-0.04 4.26,-0.2 6.36,-0.22 1.26,-0.01 4.67,-0.02 5.02,1.59 0.18,0.85 -0.11,1.89 -1.11,2.02 -0.63,0.08 -1.8,-0.06 -2.52,-0.07 -1.98,-0.01 -4,0.06 -5.99,0.08 -3.6,0.03 -7.23,0.02 -10.82,0.12 -1.3,0.04 -2.73,-0.05 -3.09,-1.57 -0.09,-0.38 -0.05,-0.7 0.15,-1.04zm0.05 5.42c0.53,-1.64 2.07,-1.42 3.5,-1.36 2.14,0.09 4.44,0.04 6.59,0.03 2.5,-0 4.85,-0.06 7.35,-0.19 1.74,-0.09 6.25,-0.4 5.96,2.39 -0.11,1.03 -1.17,0.99 -2.01,1.07 -4.32,0.44 -8.72,0.43 -13.06,0.36 -1.48,-0.03 -7.1,-0.15 -8.1,-0.76 -0.51,-0.35 -0.36,-1.04 -0.24,-1.55zm3.25 3.95c-0.01,-0.07 0.14,-0.04 0.23,-0.04 5.53,0.03 11.05,-0.01 16.58,0.03 -0.29,3.19 -1.52,4.49 -4.49,5.55 -3.64,1.29 -8.3,1.02 -10.89,-2.16 -0.82,-1.01 -1.26,-2.11 -1.43,-3.39zm20.28 -11.91c-0.87,-0 -1.75,-0 -2.62,-0.01 -7.02,-0.02 -14.05,-0.01 -21.07,-0.05 -0.08,-0 -0.06,-0.01 -0.08,-0.13 -0.63,-4.83 -1.38,-9.5 -4.15,-13.6 -0.23,-0.35 -0.47,-0.68 -0.72,-1.02 -1.08,-1.52 -2.11,-2.97 -2.91,-5.75 -0.56,-1.95 -0.83,-3.9 -0.83,-5.82 0.01,-12.58 10.71,-21.95 23.19,-20.38 12.36,1.56 20.49,14.27 17.15,26.14 -1.02,3.6 -3.44,5.84 -5.09,9.09 -1.82,3.57 -2.49,7.51 -2.8,11.46l-0.01 0.07 -0.07 -0z"/>
 </g>
</svg>
