<?xml version="1.0" encoding="UTF-8"?>
<!DOCTYPE svg PUBLIC "-//W3C//DTD SVG 1.1//EN" "http://www.w3.org/Graphics/SVG/1.1/DTD/svg11.dtd">
<!-- Creator: CorelDRAW -->
<svg xmlns="http://www.w3.org/2000/svg" xml:space="preserve" width="45mm" height="45mm" version="1.1" style="shape-rendering:geometricPrecision; text-rendering:geometricPrecision; image-rendering:optimizeQuality; fill-rule:evenodd; clip-rule:evenodd"
viewBox="0 0 19.92 19.92"
 xmlns:xlink="http://www.w3.org/1999/xlink"
 xmlns:xodm="http://www.corel.com/coreldraw/odm/2003">
 <defs>
  <style type="text/css">
   <![CDATA[
    .fil0 {fill:white}
   ]]>
  </style>
 </defs>
 <g id="Capa_x0020_1">
  <metadata id="CorelCorpID_0Corel-Layer"/>
  <path class="fil0" d="M12.04 2.32c0.66,0.18 1.28,0.44 1.86,0.77l2 -1.12c0.39,0.29 0.76,0.6 1.11,0.96 0.35,0.35 0.67,0.72 0.96,1.11l-1.12 2c0.33,0.58 0.59,1.2 0.77,1.86l2.21 0.62c0.07,0.48 0.11,0.96 0.11,1.46 0,0.49 -0.04,0.98 -0.11,1.46l-2.21 0.62c-0.18,0.66 -0.44,1.28 -0.77,1.86l1.12 2c-0.29,0.39 -0.6,0.76 -0.96,1.11 -0.35,0.35 -0.72,0.67 -1.11,0.96l-2 -1.12c-0.58,0.33 -1.2,0.59 -1.85,0.77l-0.62 2.21c-0.48,0.07 -0.96,0.11 -1.46,0.11 -0.49,0 -0.98,-0.04 -1.46,-0.11l-0.62 -2.21c-0.66,-0.18 -1.28,-0.44 -1.86,-0.77l-2 1.12c-0.39,-0.29 -0.76,-0.6 -1.11,-0.96 -0.35,-0.35 -0.67,-0.72 -0.96,-1.11l1.12 -2c-0.33,-0.58 -0.59,-1.2 -0.77,-1.85l-2.21 -0.62c-0.07,-0.48 -0.11,-0.96 -0.11,-1.46 0,-0.49 0.04,-0.98 0.11,-1.46l2.21 -0.62c0.18,-0.66 0.44,-1.28 0.77,-1.86l-1.12 -2c0.29,-0.39 0.6,-0.76 0.96,-1.11 0.35,-0.35 0.72,-0.67 1.11,-0.96l2 1.12c0.58,-0.33 1.2,-0.59 1.85,-0.77l0.62 -2.21c0.48,-0.07 0.96,-0.11 1.46,-0.11 0.49,0 0.98,0.04 1.46,0.11l0.62 2.21zm-2.08 3.94c2.05,0 3.7,1.66 3.7,3.7 0,2.05 -1.66,3.7 -3.7,3.7 -2.05,0 -3.7,-1.66 -3.7,-3.7 0,-2.05 1.66,-3.7 3.7,-3.7z"/>
 </g>
</svg>
