<?xml version="1.0" encoding="UTF-8"?>
<!DOCTYPE svg PUBLIC "-//W3C//DTD SVG 1.1//EN" "http://www.w3.org/Graphics/SVG/1.1/DTD/svg11.dtd">
<!-- Creator: CorelDRAW -->
<svg xmlns="http://www.w3.org/2000/svg" xml:space="preserve" width="1.77165in" height="1.73012in" version="1.1" style="shape-rendering:geometricPrecision; text-rendering:geometricPrecision; image-rendering:optimizeQuality; fill-rule:evenodd; clip-rule:evenodd"
viewBox="0 0 562.26 549.08"
 xmlns:xlink="http://www.w3.org/1999/xlink"
 xmlns:xodm="http://www.corel.com/coreldraw/odm/2003">
 <defs>
  <style type="text/css">
   <![CDATA[
    .fil0 {fill:#FEFEFE}
   ]]>
  </style>
 </defs>
 <g id="Capa_x0020_1">
  <metadata id="CorelCorpID_0Corel-Layer"/>
  <path class="fil0" d="M-0 271.24c0,47.17 4.21,72.28 19.61,115.46 1.3,3.66 2.47,5.56 4.19,8.99 1.86,3.69 2.59,6.18 4.36,9.91 9.08,19.1 25.02,43.85 39.64,59.19 2.89,3.03 3.77,4.8 6.57,7.71 4.89,5.08 9.31,9.26 14.3,14.25 9.52,9.52 20.08,18.11 31.47,25.64 11.55,7.64 22.55,14.65 35.06,20.94 8.52,4.28 34.24,15.74 43.56,15.74 7.83,0 13.18,-7.14 13.18,-15.37l0 -51.61c-6.61,0.15 -10.66,2.2 -18.67,2.2 -33.94,0 -62.19,-1.76 -76.57,-35.44 -6.88,-16.14 -16.16,-31.96 -31.28,-41.2 -4.34,-2.66 -10.26,-7.4 -10.76,-13.4 14,-9.38 35.92,3.66 45.88,13.42 13.32,13.05 23.55,44.51 54.84,43.07 13.38,-0.62 23.44,-0.28 34.11,-6.21 6.48,-3.6 3.19,-14.96 12.5,-29.23 2.47,-3.78 6.29,-5.51 7.51,-10.06 -8.2,-0.68 -19.49,-2.85 -27.38,-4.47 -29.21,-6.01 -54.37,-18.67 -73.32,-40.89 -7.89,-9.25 -13.07,-20.31 -17.23,-32.18 -14.41,-41.11 -14.21,-89.7 10.94,-126.08 9.27,-13.41 8.48,-5.86 4.6,-22.34 -4.21,-17.87 0.02,-62.85 9.04,-62.85 16.23,0 27.44,5.36 40.79,10.82 19.3,7.9 30.29,19.6 37.37,18.08 16.7,-3.59 31.46,-8.18 49.23,-8.04 8.33,0.07 12.94,-1.61 21.97,-1.1 19.66,1.11 40.71,3.25 59.76,8.4 4.36,1.18 4.83,1.98 8.13,0.28 13.63,-7.05 14.59,-10.71 37.07,-20.13 14.11,-5.91 18.05,-8.31 37.81,-8.31 4.1,17.58 8.78,14.57 8.78,47.22 0,5.69 -0.63,9.62 -1.74,14.73 -0.8,3.68 -3.63,10.51 -3.36,12.55 0.53,4.11 48.63,46.84 18.97,135.93 -10.81,32.48 -34.4,53.89 -65.48,66.3 -15.1,6.03 -36.89,11.7 -53.81,12.08 7.18,10.73 12.45,11.39 16.21,27.71 6.06,26.27 -1.05,89.49 3.59,106.22 1.82,6.55 7.03,9.92 14.24,9.92 7.13,0 34.4,-12.28 40.65,-15.36 9.18,-4.52 19.08,-9.44 27.28,-15.54l24.17 -17.56c10.55,-8.41 19.99,-17.91 29.54,-27.56 2.93,-2.97 3.71,-4.71 6.57,-7.71 15.53,-16.3 30.01,-38.89 39.83,-59 16.5,-33.76 28.53,-74.25 28.53,-113.14 0,-37.42 -2.6,-74.1 -16.31,-107.78 -6.69,-16.42 -13.24,-30.93 -21.78,-46.31l-13.52 -20.53c-9.7,-13.76 -19.68,-25.69 -31.58,-37.6 -25.71,-25.75 -58.31,-47.13 -92.04,-60.61 -4.46,-1.78 -8.81,-3.38 -12.72,-4.85 -47.98,-18 -109.05,-19.99 -159.06,-7.83 -26.45,6.43 -49.52,16.3 -73.22,28.91 -21.32,11.34 -41.87,27.38 -58.84,44.38 -16.77,16.79 -32.75,36.67 -44.71,57.42 -4.23,7.34 -7.73,14.3 -11.76,22.28 -13.37,26.53 -26.72,71.24 -26.72,110.55z"/>
 </g>
</svg>
