<?xml version="1.0" encoding="UTF-8"?>
<!DOCTYPE svg PUBLIC "-//W3C//DTD SVG 1.1//EN" "http://www.w3.org/Graphics/SVG/1.1/DTD/svg11.dtd">
<!-- Creator: CorelDRAW -->
<svg xmlns="http://www.w3.org/2000/svg" xml:space="preserve" width="45mm" height="45.1728mm" version="1.1" style="shape-rendering:geometricPrecision; text-rendering:geometricPrecision; image-rendering:optimizeQuality; fill-rule:evenodd; clip-rule:evenodd"
viewBox="0 0 20.42 20.5"
 xmlns:xlink="http://www.w3.org/1999/xlink"
 xmlns:xodm="http://www.corel.com/coreldraw/odm/2003">
 <defs>
  <style type="text/css">
   <![CDATA[
    .fil0 {fill:#FEFEFE}
   ]]>
  </style>
 </defs>
 <g id="Capa_x0020_1">
  <metadata id="CorelCorpID_0Corel-Layer"/>
  <path class="fil0" d="M0.61 20.31c1.72,-0.6 3.63,-1.49 5.35,-2.09 0.84,-0.29 0.78,-0.24 1.41,-0.87 2.89,-2.89 5.77,-5.77 8.66,-8.66 0.7,-0.7 0.71,-0.71 -0.01,-1.45 -0.94,-0.97 -1.9,-1.92 -2.86,-2.86 -0.75,-0.73 -0.74,-0.74 -1.46,-0.01 -2.93,2.93 -5.85,5.85 -8.79,8.79 -0.5,0.5 -0.45,0.45 -0.68,1.12 -0.61,1.77 -1.42,3.84 -2.03,5.61 -0.27,0.77 -0.35,0.69 0.42,0.42zm13.57 -17.81c1.22,1.22 2.44,2.44 3.65,3.65 0.37,0.37 0.37,0.37 0.77,-0.04l1.33 -1.33c0.34,-0.34 0.7,-1.14 0.33,-1.51 -0.36,-0.38 -1.04,-1.05 -1.57,-1.58l-0 -0c-0.53,-0.53 -1.2,-1.21 -1.58,-1.57 -0.3,-0.3 -1.17,-0.01 -1.51,0.33 -0.46,0.46 -0.91,0.91 -1.37,1.37 -0.37,0.37 -0.36,0.36 -0.05,0.67z"/>
 </g>
</svg>
