<?xml version="1.0" encoding="UTF-8"?>
<!DOCTYPE svg PUBLIC "-//W3C//DTD SVG 1.1//EN" "http://www.w3.org/Graphics/SVG/1.1/DTD/svg11.dtd">
<!-- Creator: CorelDRAW -->
<svg xmlns="http://www.w3.org/2000/svg" xml:space="preserve" width="1.51818in" height="1.5748in" version="1.1" style="shape-rendering:geometricPrecision; text-rendering:geometricPrecision; image-rendering:optimizeQuality; fill-rule:evenodd; clip-rule:evenodd"
viewBox="0 0 207.97 215.73"
 xmlns:xlink="http://www.w3.org/1999/xlink"
 xmlns:xodm="http://www.corel.com/coreldraw/odm/2003">
 <defs>
  <style type="text/css">
   <![CDATA[
    .fil0 {fill:#FEFEFE}
   ]]>
  </style>
 </defs>
 <g id="Capa_x0020_1">
  <metadata id="CorelCorpID_0Corel-Layer"/>
  <path class="fil0" d="M106.43 1.01l21.11 21.11c1.34,1.34 1.34,3.54 0,4.88l-64.44 64.44c-1.34,1.34 -3.54,1.34 -4.88,0l-21.11 -21.11c-1.34,-1.34 -1.34,-3.54 0,-4.88l64.44 -64.44c1.34,-1.34 3.54,-1.34 4.88,0zm-4.88 151.1l0 -0c1.34,1.34 3.54,1.34 4.88,0l0 0 73.11 -73.11c1.34,-1.34 3.54,-1.34 4.88,0l21.11 21.11c1.34,1.34 1.34,3.54 0,4.88l-99.1 99.1c-0.29,0.29 -0.63,0.52 -0.99,0.69l0 0c-0.03,0.01 -0.05,0.02 -0.08,0.03l0 0c-0.1,0.04 -0.21,0.08 -0.31,0.12l0 0c-0.05,0.02 -0.11,0.03 -0.16,0.05l-0 0c-0.05,0.01 -0.11,0.03 -0.16,0.04 -0.03,0.01 -0.05,0.01 -0.08,0.02 -0.08,0.02 -0.16,0.03 -0.25,0.04l0 0c-0.03,0 -0.06,0.01 -0.08,0.01 -0.03,0 -0.06,0 -0.08,0.01 -0.03,0 -0.06,0 -0.08,0.01 -0.03,0 -0.06,0 -0.08,0 -0.03,0 -0.06,0 -0.08,0l-0 0c-0.14,0 -0.28,-0.01 -0.41,-0.02l0 0c-0.03,-0 -0.06,-0.01 -0.08,-0.01 -0.03,-0 -0.06,-0.01 -0.08,-0.01 -0.08,-0.01 -0.16,-0.03 -0.24,-0.05 -0.03,-0.01 -0.05,-0.01 -0.08,-0.02l0 0c-0.03,-0.01 -0.05,-0.01 -0.08,-0.02 -0.03,-0.01 -0.05,-0.02 -0.08,-0.02l0 0c-0.03,-0.01 -0.05,-0.02 -0.08,-0.03 -0.03,-0.01 -0.05,-0.02 -0.08,-0.03 -0.03,-0.01 -0.05,-0.02 -0.08,-0.03 -0.03,-0.01 -0.05,-0.02 -0.08,-0.03l-0 0c-0.03,-0.01 -0.05,-0.02 -0.08,-0.03l0 0c-0.03,-0.01 -0.05,-0.02 -0.08,-0.04 -0.03,-0.01 -0.05,-0.03 -0.08,-0.04 -0.02,-0.01 -0.05,-0.03 -0.07,-0.04 -0.02,-0.01 -0.05,-0.03 -0.07,-0.04 -0.02,-0.01 -0.05,-0.03 -0.07,-0.04 -0.02,-0.02 -0.05,-0.03 -0.07,-0.05 -0.02,-0.02 -0.05,-0.03 -0.07,-0.05 -0.02,-0.02 -0.05,-0.03 -0.07,-0.05 -0.02,-0.02 -0.05,-0.03 -0.07,-0.05 -0.02,-0.02 -0.05,-0.04 -0.07,-0.05 -0.02,-0.02 -0.04,-0.04 -0.07,-0.06 -0.02,-0.02 -0.04,-0.04 -0.07,-0.06 -0.02,-0.02 -0.04,-0.04 -0.06,-0.06 -0.02,-0.02 -0.04,-0.04 -0.06,-0.06l-21.11 -21.11 -77.99 -77.99c-1.34,-1.34 -1.34,-3.54 0,-4.88l21.11 -21.11c1.34,-1.34 3.54,-1.34 4.88,0l73.11 73.11zm59.59 60.17c0,1.9 1.55,3.45 3.45,3.45l39.95 0c1.9,-0 3.45,-1.56 3.45,-3.45l0 -80.28c0,-0.95 -0.39,-1.81 -1.01,-2.44l-45.83 45.83 0 36.89zm-114.29 0c0,1.9 -1.55,3.45 -3.45,3.45l-39.95 0c-1.9,-0 -3.45,-1.56 -3.45,-3.45l0 -80.28c0,-0.95 0.39,-1.81 1.01,-2.44l45.83 45.83 0 36.89zm98.58 -172.28l21.11 21.11c1.34,1.34 1.34,3.54 0,4.88l-64.44 64.44c-1.34,1.34 -3.54,1.34 -4.88,0l-21.11 -21.11c-1.34,-1.34 -1.34,-3.54 0,-4.88l64.44 -64.44c1.34,-1.34 3.54,-1.34 4.88,0z"/>
 </g>
</svg>
