<?xml version="1.0" encoding="UTF-8"?>
<!DOCTYPE svg PUBLIC "-//W3C//DTD SVG 1.1//EN" "http://www.w3.org/Graphics/SVG/1.1/DTD/svg11.dtd">
<!-- Creator: CorelDRAW -->
<svg xmlns="http://www.w3.org/2000/svg" xml:space="preserve" width="1.87052in" height="1.64728in" version="1.1" style="shape-rendering:geometricPrecision; text-rendering:geometricPrecision; image-rendering:optimizeQuality; fill-rule:evenodd; clip-rule:evenodd"
viewBox="0 0 1873.97 1650.32"
 xmlns:xlink="http://www.w3.org/1999/xlink"
 xmlns:xodm="http://www.corel.com/coreldraw/odm/2003">
 <defs>
  <style type="text/css">
   <![CDATA[
    .str0 {stroke:#FEFEFE;stroke-width:19.72;stroke-miterlimit:22.9256}
    .fil0 {fill:#FEFEFE}
   ]]>
  </style>
 </defs>
 <g id="Capa_x0020_1">
  <metadata id="CorelCorpID_0Corel-Layer"/>
  <g id="_2447236549696">
   <path class="fil0 str0" d="M1010.76 441.16l-56.75 0 0 -393.46c50.1,0 76.92,4.08 122.44,11.87 21.89,3.74 103.25,23.57 120.93,32.29 5.87,2.9 4.12,1.38 6.69,8.45 38.17,105.32 58.15,197.86 78.92,307.11 2.71,14.23 4.82,13.71 -10.73,15.26 -92.17,9.19 -158.67,18.48 -261.49,18.48zm-91.2 -431.3l32.28 0c181.99,3.64 362.12,68.03 507.83,190.47 78.12,65.64 129.91,129.58 182.56,216.58 5.65,9.34 10.68,18.39 15.48,28.03 24.59,49.45 35.12,70.33 53.2,124.61 31.08,93.28 17.07,63.48 -2.13,145.9l-3.6 -11.53c-13.89,-82.24 -27.39,-121.89 -59.62,-199.54 -7.48,-18.03 -57.81,-106.59 -57.84,-106.73l-63.16 16.29c-48.87,12.22 -111.98,25.22 -163.03,33.7 -9.83,1.64 -23.79,4.66 -32.97,4.86 0,14.63 2.38,25.89 3.94,39.57 1.4,12.25 2.86,25.33 4.72,38.79l6.47 78.65 -35.94 0 -17.02 -151.33c-35.66,2.97 -84.81,12.05 -122.96,13.24 -10.97,0.34 -29.61,2.35 -40,3.5l-86.73 4.07c-31.22,-0.16 -57.82,1.88 -87.03,1.88l0 128.63 -35.94 0 0 -128.63c-10.61,-0.88 -18.66,-1.9 -32.16,-1.89 -34.8,0.02 -127.69,-3.68 -161.59,-8.66 -20.69,-3.03 -40.06,-2.47 -60.84,-5.37 -21.11,-2.95 -40.19,-4.6 -60.98,-7.12 -35.11,-4.25 -24.52,-8.41 -30.03,29.29 -2.85,19.52 -11.93,103.61 -11.93,122.38l-37.83 0 7.9 -81c1.33,-11.92 3.06,-29.21 4.75,-40.65 1.9,-12.83 4.37,-25.89 4.37,-39.14l-253.48 -51.07c-10.6,20.03 -24.07,36.69 -40.35,69.36 -38.48,77.21 -51.81,116.55 -71.27,199.23 -2.38,10.11 -7.55,34.56 -7.55,45.42 -6.18,-4.53 -2.19,0.62 -4.67,-8.57l-18.03 -70.87c0,-10.3 15.68,-57.35 19.63,-69.28 17.06,-51.58 31.33,-77.25 53.51,-122.41 24,-48.86 79.74,-125.51 118.36,-167.27l33.13 -33.08c7.81,-7.81 13.44,-14.23 22.38,-21.13 12.08,-9.34 28.62,-25.8 48.35,-40.56 27.8,-20.8 47.76,-34.87 77.65,-52.87 124.36,-74.87 263.24,-113.04 402.16,-115.74zm-1.49 35.94l0 395.35c-91.24,0 -205.23,-7.43 -296.42,-19.48 -10.61,-1.4 -27.23,-4.18 -38.4,-5.11l13.71 -73.3c13.61,-68.05 33.88,-146.1 55.1,-209.73l8.2 -23.96c1.37,-3.75 1.52,-5.3 2.73,-8.62 3.44,-9.41 9.62,-8.31 28.8,-14.71 51.34,-17.14 90.05,-25.31 144.61,-33.21l81.68 -7.23zm-370.76 365.09c-15.93,0 -104.5,-17.39 -121.59,-20.28 -39.6,-6.69 -79.06,-16.33 -116.76,-25.12 4.76,-7.1 9.1,-12.51 14.7,-19.35 31.2,-38.13 46.86,-55.94 83.15,-90.88l37.75 -32.24c53.58,-43.2 69.68,-51.99 125.53,-84.45 7.67,-4.45 39.58,-21.01 47.21,-22.78l-20.59 70.21c-10.67,36.34 -49.4,195.18 -49.4,224.88zm701.8 -298.88c68.09,36.03 69.9,33.04 134.68,77.18l59.6 46.33c17.8,14.97 38.73,36.67 54.94,52.88l49.41 56.53c5.51,6.91 11.26,12.76 15.38,20.56 -9.04,2.11 -18.84,5.18 -28.38,7.57 -57.05,14.26 -93.4,21.4 -150.84,32.64 -9.76,1.91 -57.27,8.16 -62.91,10.86l-14.03 -78.66c-5.46,-27.31 -10.37,-51.28 -16.98,-77.6 -9.55,-38 -23.59,-91.51 -35.89,-128.69 -2.42,-7.33 -4.74,-11.08 -4.98,-19.61z"/>
   <path class="fil0 str0" d="M1196.14 1559.12c0.62,-7.5 52.44,-152.61 56.99,-166.22 9.2,-27.52 17.08,-56.61 25.44,-86.16l21.61 -90c4.61,2.21 26.83,4.45 34.05,5.68l240.24 47.29c-10.11,19.09 -42.36,53.67 -54.86,69.99 -6.37,8.33 -13.53,13.33 -20.25,21.37 -7.13,8.53 -11.79,14.17 -19.93,21.69 -4.59,4.25 -6.74,4.91 -11.41,9.4 -3.97,3.82 -6.44,6.55 -10.34,10.47 -35.95,36.14 -103.31,78.18 -145.79,103.91 -15.67,9.49 -98.36,48.55 -115.76,52.6zm-898.53 -289.42l63.56 -15.89c22.62,-5.66 43.02,-9.77 66.22,-15.12 14.24,-3.28 122.38,-23.85 138.83,-23.85 1.68,20.19 42.81,163.56 47.52,177.58 9.38,27.89 18.16,56.62 28.94,84.56l31.36 82.14c-31.81,-16.83 -59.83,-21.87 -113.6,-52.87 -8.86,-5.11 -18.13,-9.73 -26.39,-15.23 -33.4,-22.22 -79.71,-51.1 -108.31,-78.96 -4.93,-4.8 -5.91,-5.5 -11.14,-9.67 -29.74,-23.72 -93.78,-98.02 -117,-132.7zm845.56 306.45l-43.13 9.84c-13.66,3.22 -31.43,6.71 -46.09,8.76 -31.75,4.45 -66.18,6.96 -99.94,9.77l0 -414.27 77.83 3.51c11.89,1.34 28.75,1.19 39.55,2.07 6.79,0.55 13.67,-0.38 20.43,0.37 26.37,2.94 69.62,4.74 95.66,8.38l74.86 8.37c0,21.45 -43.11,160 -53.24,187l-49.19 132.41c-3.54,9.59 -15.96,34.37 -16.74,43.79zm-541.01 -366.98c14.02,0 55.33,-6.5 75.61,-7.62 11.09,-0.62 26.9,-3.19 37.9,-3.71 71.45,-3.4 124.78,-7.58 202.39,-7.58l0 414.27c-12.78,-2.98 -26.36,-0.9 -40.53,-2.98l-40.97 -4.43c-24.71,-2.77 -86.16,-14.56 -110.11,-22.3 -10.18,-3.29 -9.58,-9.82 -17.01,-28.39 -8.75,-21.86 -15.9,-42.24 -24.6,-64.3l-22.86 -66.05c-19.86,-59.57 -35.32,-109.45 -50.75,-170.58 -2.22,-8.79 -5.57,-29.03 -9.07,-36.33zm315.91 -130.52l0 73.77c-60.86,0 -112.96,4.13 -170.31,5.62l-153.16 15.19 -20.48 -121.39c-1.2,-8.48 -1.64,-12.82 -2.78,-21.81 -2.7,-21.26 1.03,-14.98 -5.11,-19.48 -0.69,8.35 -5.37,18.27 -7.81,26.24l-15.88 51.27 15.06 87.44c-1.24,5.53 -11.31,3.96 -26.25,6.35 -11.48,1.84 -19.44,3.26 -30.79,5.15 -61.47,10.22 -136.18,26.3 -196.86,43.38 -7.34,2.07 -20,6.43 -28.78,7.15 -1.6,-6.85 -6.84,-13.4 -10.55,-19.71 -7.85,-13.36 -28.45,-50.4 -31.06,-61.63l-41.62 0c1.91,8.2 8.07,17.42 11.61,26.22 14.44,35.87 62.17,106.83 87.02,139.97 30.21,40.28 53.92,62.77 90.05,99.12 19.76,19.87 62.04,52.26 83.16,68.18 119.44,90.01 304.41,150.78 454.55,150.78 66.98,0 107.61,-1.12 172.93,-14.34 81.71,-16.54 177.35,-48.61 248.56,-91.93 54.43,-33.11 106.5,-67.58 152.11,-112.72 7.23,-7.16 19.03,-15.22 29.27,-27.48 22.26,-26.63 38.23,-40.78 61.09,-71.32 5.43,-7.25 10.59,-13.77 16.23,-21.61l44.68 -68.82c2.72,-4.51 3.94,-7.57 6.59,-12.33 7.62,-13.72 29.88,-51.87 30.87,-63.71l-39.72 0c-10.54,19.9 -19.7,40.16 -32.05,60.64 -3.31,5.49 -9.86,14.7 -11.46,20.7l-213.76 -45.4c-14.5,-2.41 -63.54,-11.35 -75.67,-11.35 2.24,-4.68 15.13,-76.31 15.13,-85.12 0,-10.88 -13.1,-47.99 -17.02,-62.43 -1.07,-3.95 -1.46,-5.98 -2.97,-10.27 -1.99,-5.67 -1.36,-4.91 -4.6,-8.64l-11.89 80.81c-2.1,12.5 -4.88,27.18 -7.03,40.26 -2.06,12.55 -6.58,27.81 -7.57,39.72l-75.98 -9.14c-63.51,-6.63 -179.25,-13.56 -241.81,-13.56l0 -83.23c0,-12.37 -5.17,-24.56 -7.96,-35.54 -1.86,-7.3 -5.85,-28.82 -10.95,-32.56 -1.75,20.98 -17.02,53.44 -17.02,77.56z"/>
   <path class="fil0 str0" d="M131.15 1080.54l69.99 0c11.31,-23.58 85.01,-253.02 92.31,-282.24 3,-12 9.56,-32.79 9.84,-45.02l10.68 42.29c4.26,14.47 7.19,27.13 11.37,41.6l76.32 243.37 69.99 0c6.48,-13.51 10.98,-33.94 16.29,-49.92 6.01,-18.07 11.34,-32.65 16.67,-51.43 5.14,-18.14 11.61,-33.18 16.91,-51.19l82.55 -256.05 -75.66 0c-2.15,4.48 -4.39,14.37 -6.09,20.4 -20.74,73.92 -45.58,154.13 -64.31,227 -4.53,17.62 -18.51,73.13 -18.51,89.31l-23.36 -84.46c-16.27,-56.32 -36.57,-115.26 -51.51,-167.92l-25.39 -84.32 -64.32 0c-10.32,21.5 -91.03,286.31 -97.99,314.39l-5.48 21c-0.11,0.3 -0.31,0.92 -0.57,1.32 -0.93,-11.18 -5.79,-30.91 -8.71,-42.37 -3.83,-15.09 -6.67,-28.58 -10.21,-42.76l-64.32 -251.59 -77.56 0c0.22,9.9 24.81,86.73 29.59,102.83 10.25,34.5 20.36,68.21 30.71,101.7l46.03 152.59c2.02,7.3 4.78,16.57 7.4,24.76 2,6.24 6.73,19.53 7.33,26.72z"/>
   <path class="fil0 str0" d="M1392.87 1080.54l69.99 0 40.44 -118.46c4.87,-14.61 8.84,-26.55 13.71,-41.15 22.22,-66.63 31.71,-95.81 48.01,-165.75 1.38,2.17 0.05,-1.14 1.79,3.89l20.5 79.76c4.13,14.72 8.18,26.4 12.16,40.81 1.77,6.43 4.09,12.7 6.48,20.01 2.41,7.38 3.99,14.04 6.11,20.37 8.96,26.7 17.19,52.74 26.05,79.88l25.28 80.65 69.99 0c1.92,-8.24 5.08,-16.18 7.82,-24.34 2.75,-8.19 4.95,-16.89 8.02,-26.03 5.96,-17.72 11.73,-33.33 16.72,-51.39l82.43 -254.28c3.65,-13.21 15.28,-41.12 15.53,-52.57l-75.66 0c-0.24,10.86 -43.33,156.34 -46.07,165.79 -9.56,32.98 -26.34,92.08 -33.24,125.65 -2.65,12.89 -7.7,31.54 -7.7,45.26 -1.02,-1.46 -0.89,-0.95 -2.02,-3.65 -1.21,-2.91 -0.84,-1.95 -1.85,-5.73l-96.39 -327.33 -64.32 0c-5.71,11.9 -44.81,139.13 -53.21,164.33 -9.07,27.22 -17.4,55.87 -26.01,83.71 -4.68,15.15 -22.65,74.07 -22.93,86.78 -6.65,-4.87 -1.77,1.53 -4.1,-7.25l-16.71 -75.98c-7.01,-28.04 -14.85,-55.38 -21.95,-83.98 -5.81,-23.37 -42.13,-157.03 -42.37,-167.61l-79.45 0c2.12,4.42 6.03,18.58 7.81,24.35 22.37,72.96 46.18,159.63 69.04,229.84l46.11 154.41z"/>
   <path class="fil0 str0" d="M762.95 1080.54l69.99 0c0.69,-8.23 72.29,-214.18 79.45,-240.24l22.7 -85.13c12.37,53.07 21.46,78.83 34.05,124.85l64.32 200.52 69.99 0c0.98,-11.79 11.91,-37.13 15.81,-50.39l49.22 -153.19c11.55,-34.66 20.98,-66.97 32.62,-101.69l32.87 -103.32 -75.66 0c-0.5,6.07 -3.88,15.64 -5.45,21.03 -2.1,7.19 -3.96,13.62 -5.9,20.59l-72.99 271.29c-4.02,20.02 -0.17,17.3 -6.46,21.91 -0.4,-17.89 -27.26,-104.12 -33.65,-127.14l-57.83 -186.19c-2.4,-8.15 -3.72,-14.91 -6.88,-21.49l-64.32 0 -78.77 250.38c-8.72,29.38 -16.24,55.7 -23.38,86.34l-19.68 -84.36c-20.24,-80.97 -46.96,-173 -65.45,-252.35l-77.56 0c0.55,6.64 4.65,18.54 6.86,25.3 18.92,58.08 35.07,119.8 53.91,178.76l62.19 204.53z"/>
  </g>
 </g>
</svg>
